<?xml version="1.0" encoding="iso-8859-1"?>
<!-- Generator: Adobe Illustrator 18.0.0, SVG Export Plug-In . SVG Version: 6.00 Build 0)  -->
<!DOCTYPE svg PUBLIC "-//W3C//DTD SVG 1.1//EN" "http://www.w3.org/Graphics/SVG/1.1/DTD/svg11.dtd">
<svg version="1.1" id="Capa_1" xmlns="http://www.w3.org/2000/svg" xmlns:xlink="http://www.w3.org/1999/xlink" x="0px" y="0px"
	 viewBox="0 0 410 410" style="enable-background:new 0 0 410 410;" xml:space="preserve">
<path d="M366.077,68.045c-24.219,0-43.923,19.707-43.923,43.924c0,4.938,0.831,9.68,2.339,14.111l-76.958,84.592
	c-3.409-0.852-6.971-1.311-10.638-1.311c-4.742,0-9.307,0.764-13.587,2.162l-22.053-20.264c0.837-3.383,1.289-6.914,1.289-10.549
	c0-24.219-19.704-43.922-43.923-43.922c-24.218,0-43.923,19.703-43.923,43.922c0,4.492,0.681,8.826,1.939,12.908l-60.968,62.098
	c-3.741-1.039-7.678-1.607-11.746-1.607C19.704,254.109,0,273.813,0,298.031c0,24.219,19.704,43.924,43.923,43.924
	c24.219,0,43.923-19.705,43.923-43.924c0-4.35-0.645-8.551-1.828-12.522l61.239-62.375c3.627,0.973,7.434,1.5,11.363,1.5
	c4.785,0,9.391-0.779,13.706-2.201l21.963,20.18c-0.857,3.418-1.317,6.992-1.317,10.672c0,24.219,19.705,43.922,43.923,43.922
	c24.22,0,43.923-19.703,43.923-43.922c0-4.754-0.768-9.328-2.171-13.617l77.3-84.967c3.255,0.771,6.643,1.189,10.128,1.189
	c24.219,0,43.923-19.703,43.923-43.922C410,87.752,390.296,68.045,366.077,68.045z M158.621,160.842
	c10.957,0,19.87,8.914,19.87,19.869c0,10.957-8.913,19.871-19.87,19.871c-10.956,0-19.869-8.914-19.869-19.871
	C138.752,169.756,147.665,160.842,158.621,160.842z M43.923,317.902c-10.956,0-19.869-8.916-19.869-19.871
	s8.913-19.869,19.869-19.869c10.956,0,19.87,8.914,19.87,19.869S54.879,317.902,43.923,317.902z M236.896,273.154
	c-10.956,0-19.869-8.914-19.869-19.869c0-10.957,8.913-19.869,19.869-19.869c10.957,0,19.87,8.912,19.87,19.869
	C256.766,264.24,247.853,273.154,236.896,273.154z M366.077,131.84c-10.956,0-19.869-8.914-19.869-19.871
	c0-10.955,8.913-19.869,19.869-19.869c10.956,0,19.869,8.914,19.869,19.869C385.945,122.926,377.032,131.84,366.077,131.84z"/>
<g>
</g>
<g>
</g>
<g>
</g>
<g>
</g>
<g>
</g>
<g>
</g>
<g>
</g>
<g>
</g>
<g>
</g>
<g>
</g>
<g>
</g>
<g>
</g>
<g>
</g>
<g>
</g>
<g>
</g>
</svg>
