<?xml version="1.0" encoding="iso-8859-1"?>
<!-- Generator: Adobe Illustrator 19.0.0, SVG Export Plug-In . SVG Version: 6.00 Build 0)  -->
<svg version="1.1" id="Layer_1" xmlns="http://www.w3.org/2000/svg" xmlns:xlink="http://www.w3.org/1999/xlink" x="0px" y="0px"
	 viewBox="0 0 460 460" style="enable-background:new 0 0 460 460;" xml:space="preserve">
<g>
	<path style="fill:#405A0F;" d="M230,0C102.974,0,0,102.974,0,230c0,97.19,60.283,180.301,145.497,213.98l308.259-267.434
		C429.658,75.299,338.623,0,230,0z"/>
	<path style="fill:#2A3C0A;" d="M460,230c0-18.403-2.175-36.297-6.257-53.45L381.5,104.307l-14.243,22.919l-85.992-85.992
		L78.5,376.98l66.998,66.998C171.657,454.317,200.165,460,230,460C357.026,460,460,357.025,460,230z"/>
	<polygon style="fill:#FFC240;" points="78.5,195.198 78.5,104.307 154.253,126.635 162.597,226.174 	"/>
	<polygon style="fill:#FFD170;" points="162.597,317.065 78.5,286.089 78.5,195.198 154.253,217.526 	"/>
	<polygon style="fill:#FFC240;" points="154.253,308.417 174.253,357.497 154.253,399.307 78.5,376.98 78.5,286.089 	"/>
	<polygon style="fill:#FF984C;" points="230.002,104.307 238.345,203.846 154.253,217.526 154.253,126.635 	"/>
	<polygon style="fill:#FFC240;" points="238.345,294.737 154.253,308.417 154.253,217.526 230.002,195.198 	"/>
	<polygon style="fill:#FF984C;" points="230.002,376.98 154.253,399.307 154.253,308.417 230.002,286.089 	"/>
	<polygon style="fill:#FFC240;" points="230.002,195.198 230.002,104.307 305.756,126.635 314.099,226.174 	"/>
	<polygon style="fill:#FFD170;" points="314.099,317.065 230.002,286.089 230.002,195.198 305.756,217.526 	"/>
	<polygon style="fill:#FFC240;" points="305.756,308.417 325.756,354.666 305.756,399.307 230.002,376.98 230.002,286.089 	"/>
	<polygon style="fill:#FF984C;" points="305.756,126.635 381.5,104.307 381.5,195.198 343.628,223.943 305.756,217.526 	"/>
	<polygon style="fill:#FFC240;" points="305.756,217.526 381.5,195.198 381.5,286.089 343.628,314.041 305.756,308.417 	"/>
	<polygon style="fill:#FF984C;" points="381.5,286.089 381.5,376.98 305.756,399.307 305.756,308.417 	"/>
	<path style="fill:#FF5347;" d="M230,20c-40.041,0-72.5,32.459-72.5,72.5c0,17.736,6.372,33.982,16.948,46.581L230,205.278
		l22.787-92.639L230,20z"/>
	<path style="fill:#FF1909;" d="M230,20v185.278l55.552-66.197C296.128,126.482,302.5,110.236,302.5,92.5
		C302.5,52.459,270.041,20,230,20z"/>
	<path style="fill:#FFC6C2;" d="M230,57.52c19.32,0,34.98,15.659,34.98,34.978s-15.66,34.986-34.98,34.986l-14.791-34.986L230,57.52
		z"/>
	<path style="fill:#FFFFFF;" d="M230,57.52v69.964c-19.32,0-34.984-15.666-34.984-34.986S210.68,57.52,230,57.52z"/>
</g>
<g>
</g>
<g>
</g>
<g>
</g>
<g>
</g>
<g>
</g>
<g>
</g>
<g>
</g>
<g>
</g>
<g>
</g>
<g>
</g>
<g>
</g>
<g>
</g>
<g>
</g>
<g>
</g>
<g>
</g>
</svg>
