<?xml version="1.0" encoding="UTF-8" standalone="no"?>
<!-- Generator: Adobe Illustrator 18.0.0, SVG Export Plug-In . SVG Version: 6.00 Build 0)  -->

<svg
   xmlns:dc="http://purl.org/dc/elements/1.1/"
   xmlns:cc="http://creativecommons.org/ns#"
   xmlns:rdf="http://www.w3.org/1999/02/22-rdf-syntax-ns#"
   xmlns:svg="http://www.w3.org/2000/svg"
   xmlns="http://www.w3.org/2000/svg"
   xmlns:sodipodi="http://sodipodi.sourceforge.net/DTD/sodipodi-0.dtd"
   xmlns:inkscape="http://www.inkscape.org/namespaces/inkscape"
   version="1.1"
   id="Capa_1"
   x="0px"
   y="0px"
   viewBox="0 0 460 460"
   xml:space="preserve"
   sodipodi:docname="polygon.svg"
   width="460"
   height="460"
   inkscape:version="0.92.3 (3ce5693, 2018-03-11)"><metadata
   id="metadata988"><rdf:RDF><cc:Work
       rdf:about=""><dc:format>image/svg+xml</dc:format><dc:type
         rdf:resource="http://purl.org/dc/dcmitype/StillImage" /><dc:title></dc:title></cc:Work></rdf:RDF></metadata><defs
   id="defs986"><clipPath
   id="clipPath1181"
   clipPathUnits="userSpaceOnUse"><circle
     transform="matrix(0.70710677,0.70710679,0.70710679,-0.70710677,0,0)"
     id="circle1183"
     r="256"
     cy="255.99998"
     cx="256"
     style="fill:#a05a2c" /></clipPath><clipPath
   id="clipPath1458"
   clipPathUnits="userSpaceOnUse"><circle
     id="circle1460"
     r="247.96391"
     cy="425.10483"
     cx="762.29663"
     style="fill:#000000;stroke-width:0.96860904" /></clipPath><clipPath
   id="clipPath1458-1"
   clipPathUnits="userSpaceOnUse"><circle
     id="circle1460-5"
     r="247.96391"
     cy="425.10483"
     cx="762.29663"
     style="fill:#000000;stroke-width:0.96860904" /></clipPath>















	
	
	
	
	
	
	
	
	
	
	
	
	
	
	
	
	
	
	
	
	
















	
	
	
	
	
	
	
	
	
	
	
	
	
	
	
	
	
	
	
	
	
</defs><sodipodi:namedview
   pagecolor="#ffffff"
   bordercolor="#666666"
   borderopacity="1"
   objecttolerance="10"
   gridtolerance="10"
   guidetolerance="10"
   inkscape:pageopacity="0"
   inkscape:pageshadow="2"
   inkscape:window-width="1869"
   inkscape:window-height="1025"
   id="namedview984"
   showgrid="false"
   fit-margin-top="0"
   fit-margin-left="0"
   fit-margin-right="0"
   fit-margin-bottom="0"
   inkscape:zoom="1.4469819"
   inkscape:cx="202.9637"
   inkscape:cy="208.48017"
   inkscape:window-x="51"
   inkscape:window-y="27"
   inkscape:window-maximized="1"
   inkscape:current-layer="Capa_1" />

<g
   id="g953"
   transform="translate(-412.80988,21.892086)">
</g>
<g
   id="g955"
   transform="translate(-412.80988,21.892086)">
</g>
<g
   id="g957"
   transform="translate(-412.80988,21.892086)">
</g>
<g
   id="g959"
   transform="translate(-412.80988,21.892086)">
</g>
<g
   id="g961"
   transform="translate(-412.80988,21.892086)">
</g>
<g
   id="g963"
   transform="translate(-412.80988,21.892086)">
</g>
<g
   id="g965"
   transform="translate(-412.80988,21.892086)">
</g>
<g
   id="g967"
   transform="translate(-412.80988,21.892086)">
</g>
<g
   id="g969"
   transform="translate(-412.80988,21.892086)">
</g>
<g
   id="g971"
   transform="translate(-412.80988,21.892086)">
</g>
<g
   id="g973"
   transform="translate(-412.80988,21.892086)">
</g>
<g
   id="g975"
   transform="translate(-412.80988,21.892086)">
</g>
<g
   id="g977"
   transform="translate(-412.80988,21.892086)">
</g>
<g
   id="g979"
   transform="translate(-412.80988,21.892086)">
</g>
<g
   id="g981"
   transform="translate(-412.80988,21.892086)">
</g>
<g
   id="g34"
   transform="translate(76.18906,-31.436002)">
</g><g
   id="g36"
   transform="translate(76.18906,-31.436002)">
</g><g
   id="g38"
   transform="translate(76.18906,-31.436002)">
</g><g
   id="g40"
   transform="translate(76.18906,-31.436002)">
</g><g
   id="g42"
   transform="translate(76.18906,-31.436002)">
</g><g
   id="g44"
   transform="translate(76.18906,-31.436002)">
</g><g
   id="g46"
   transform="translate(76.18906,-31.436002)">
</g><g
   id="g48"
   transform="translate(76.18906,-31.436002)">
</g><g
   id="g50"
   transform="translate(76.18906,-31.436002)">
</g><g
   id="g52"
   transform="translate(76.18906,-31.436002)">
</g><g
   id="g54"
   transform="translate(76.18906,-31.436002)">
</g><g
   id="g56"
   transform="translate(76.18906,-31.436002)">
</g><g
   id="g58"
   transform="translate(76.18906,-31.436002)">
</g><g
   id="g60"
   transform="translate(76.18906,-31.436002)">
</g><g
   id="g62"
   transform="translate(76.18906,-31.436002)">
</g><path
   d="m 451.868,170.271 c 0.016,0.057 0.138,0.12 0.333,0.186 C 425.963,72.298 336.432,0 230,0 102.974,0 0,102.974 0,230 0,335.83 71.482,424.951 168.794,451.751 Z"
   style="fill:#fe843f"
   id="XMLID_1017_"
   inkscape:connector-curvature="0" /><path
   d="m 460,230 c 0,-19.519 -2.441,-38.467 -7.017,-56.563 -0.463,-1.107 -0.841,-2.166 -1.114,-3.166 L 398.97729,102.34995 81.340476,373.2817 168.794,451.751 C 188.284,457.118 208.804,460 230,460 357.026,460 460,357.025 460,230 Z"
   style="fill:#fc5a37"
   id="XMLID_1018_"
   inkscape:connector-curvature="0"
   sodipodi:nodetypes="scccccss" /><g
   id="g1486"
   transform="translate(7.6020301,8.9842174)"><path
     inkscape:connector-curvature="0"
     id="path878"
     d="m 60.885801,197.77406 70.048549,-52.30291 8.40583,28.01942 25.21747,17.74563 40.16117,-10.27378 6.53787,-41.09515 -25.03732,-36.40751 v 0 l 51.18878,-47.650754 26.15145,22.41554 38.29321,40.161164 16.81166,-32.689317 41.09514,-3.73593 29.88738,33.623297 -18.67961,42.02914 -34.55729,6.53786 58.84078,75.65244 -64.44466,50.43494 -18.67961,-31.75533 -40.16118,-12.14176 -24.28349,25.21748 v 42.02914 l 33.6233,14.94368 -74.71844,60.70875 -54.46901,-53.74881 -23.05139,22.92745 H 81.433376 L 63.687743,324.79543 73.96153,288.37019 115.05668,278.09641 55.281917,208.04785 Z"
     style="fill:#fff2d4;fill-opacity:1;stroke:none;stroke-width:1.35145307px;stroke-linecap:butt;stroke-linejoin:miter;stroke-opacity:1" /><g
     style="fill:#ffc85f;fill-opacity:1;stroke:#ffc85f;stroke-width:1.27506816;stroke-miterlimit:4;stroke-dasharray:none;stroke-opacity:1"
     transform="matrix(5.6894301,-4.7739989,4.7739989,5.6894301,-64.843632,195.35932)"
     id="g2142"><g
       style="fill:#ffc85f;fill-opacity:1;stroke:#ffc85f;stroke-width:1.27506816;stroke-miterlimit:4;stroke-dasharray:none;stroke-opacity:1"
       id="g2085"><g
         style="fill:#ffc85f;fill-opacity:1;stroke:#ffc85f;stroke-width:1.27506816;stroke-miterlimit:4;stroke-dasharray:none;stroke-opacity:1"
         id="g2083"><path
           style="fill:#ffc85f;fill-opacity:1;stroke:#ffc85f;stroke-width:1.27506816;stroke-miterlimit:4;stroke-dasharray:none;stroke-opacity:1"
           inkscape:connector-curvature="0"
           d="m 55.375,27.688 c 0,-3.653 -2.973,-6.625 -6.625,-6.625 -1.305,0 -2.561,0.386 -3.625,1.083 V 13.25 c 0,-1.654 -1.346,-3 -3,-3 h -10.62 c -0.438,0 -0.823,0.284 -0.955,0.702 -0.13,0.417 0.025,0.871 0.386,1.12 1.25,0.867 1.996,2.289 1.996,3.803 0,2.55 -2.074,4.625 -4.625,4.625 -2.551,0 -4.625,-2.075 -4.625,-4.625 0,-1.515 0.747,-2.937 1.997,-3.803 0.36,-0.249 0.516,-0.703 0.385,-1.12 C 25.933,10.535 25.547,10.25 25.109,10.25 H 13.25 c -1.654,0 -3,1.346 -3,3 v 8.896 C 9.186,21.449 7.93,21.063 6.625,21.063 2.972,21.062 0,24.035 0,27.688 c 0,3.653 2.972,6.625 6.625,6.625 1.305,0 2.561,-0.385 3.625,-1.082 v 8.896 c 0,1.653 1.346,3 3,3 h 11.861 c 0.003,0 0.007,0 0.01,0 0.55,-0.021 1.01,-0.444 1.01,-1 0,-0.392 -0.225,-0.729 -0.552,-0.894 -1.189,-0.873 -1.896,-2.258 -1.896,-3.731 0,-2.55 2.075,-4.625 4.625,-4.625 2.549,0 4.625,2.075 4.625,4.625 0,1.515 -0.748,2.937 -1.998,3.804 -0.359,0.248 -0.516,0.702 -0.385,1.119 0.131,0.417 0.518,0.702 0.955,0.702 h 10.62 c 1.653,0 3,-1.347 3,-3 V 33.23 c 1.063,0.697 2.319,1.082 3.625,1.082 3.652,0 6.625,-2.972 6.625,-6.624 z m -10.428,2.628 c -0.25,-0.36 -0.703,-0.518 -1.12,-0.385 -0.417,0.131 -0.702,0.516 -0.702,0.955 v 11.239 c 0,0.552 -0.449,1 -1,1 H 33.85 c 0.697,-1.063 1.084,-2.319 1.084,-3.625 0,-3.653 -2.973,-6.625 -6.625,-6.625 -3.653,0 -6.625,2.972 -6.625,6.625 0,1.306 0.386,2.562 1.083,3.625 H 13.25 c -0.551,0 -1,-0.448 -1,-1 V 30.886 c 0,-0.439 -0.284,-0.824 -0.702,-0.955 -0.419,-0.132 -0.872,0.024 -1.12,0.385 -0.867,1.25 -2.289,1.996 -3.803,1.996 C 4.075,32.312 2,30.238 2,27.688 c 0,-2.55 2.075,-4.625 4.625,-4.625 1.515,0 2.937,0.747 3.803,1.997 0.248,0.36 0.701,0.515 1.12,0.385 0.417,-0.131 0.702,-0.517 0.702,-0.955 V 13.25 c 0,-0.551 0.449,-1 1,-1 h 9.516 c -0.697,1.064 -1.083,2.32 -1.083,3.625 0,3.653 2.972,6.625 6.625,6.625 3.653,0 6.625,-2.972 6.625,-6.625 0,-1.305 -0.387,-2.561 -1.084,-3.625 h 8.275 c 0.551,0 1,0.449 1,1 v 11.24 c 0,0.438 0.284,0.824 0.702,0.955 0.417,0.129 0.872,-0.025 1.12,-0.385 0.867,-1.25 2.289,-1.997 3.803,-1.997 2.55,0 4.625,2.075 4.625,4.625 0,2.55 -2.075,4.625 -4.625,4.625 -1.515,-0.001 -2.937,-0.747 -3.802,-1.997 z"
           id="path2081" /></g></g><g
       style="fill:#ffc85f;fill-opacity:1;stroke:#ffc85f;stroke-width:1.27506816;stroke-miterlimit:4;stroke-dasharray:none;stroke-opacity:1"
       id="g2087" /><g
       style="fill:#ffc85f;fill-opacity:1;stroke:#ffc85f;stroke-width:1.27506816;stroke-miterlimit:4;stroke-dasharray:none;stroke-opacity:1"
       id="g2089" /><g
       style="fill:#ffc85f;fill-opacity:1;stroke:#ffc85f;stroke-width:1.27506816;stroke-miterlimit:4;stroke-dasharray:none;stroke-opacity:1"
       id="g2091" /><g
       style="fill:#ffc85f;fill-opacity:1;stroke:#ffc85f;stroke-width:1.27506816;stroke-miterlimit:4;stroke-dasharray:none;stroke-opacity:1"
       id="g2093" /><g
       style="fill:#ffc85f;fill-opacity:1;stroke:#ffc85f;stroke-width:1.27506816;stroke-miterlimit:4;stroke-dasharray:none;stroke-opacity:1"
       id="g2095" /><g
       style="fill:#ffc85f;fill-opacity:1;stroke:#ffc85f;stroke-width:1.27506816;stroke-miterlimit:4;stroke-dasharray:none;stroke-opacity:1"
       id="g2097" /><g
       style="fill:#ffc85f;fill-opacity:1;stroke:#ffc85f;stroke-width:1.27506816;stroke-miterlimit:4;stroke-dasharray:none;stroke-opacity:1"
       id="g2099" /><g
       style="fill:#ffc85f;fill-opacity:1;stroke:#ffc85f;stroke-width:1.27506816;stroke-miterlimit:4;stroke-dasharray:none;stroke-opacity:1"
       id="g2101" /><g
       style="fill:#ffc85f;fill-opacity:1;stroke:#ffc85f;stroke-width:1.27506816;stroke-miterlimit:4;stroke-dasharray:none;stroke-opacity:1"
       id="g2103" /><g
       style="fill:#ffc85f;fill-opacity:1;stroke:#ffc85f;stroke-width:1.27506816;stroke-miterlimit:4;stroke-dasharray:none;stroke-opacity:1"
       id="g2105" /><g
       style="fill:#ffc85f;fill-opacity:1;stroke:#ffc85f;stroke-width:1.27506816;stroke-miterlimit:4;stroke-dasharray:none;stroke-opacity:1"
       id="g2107" /><g
       style="fill:#ffc85f;fill-opacity:1;stroke:#ffc85f;stroke-width:1.27506816;stroke-miterlimit:4;stroke-dasharray:none;stroke-opacity:1"
       id="g2109" /><g
       style="fill:#ffc85f;fill-opacity:1;stroke:#ffc85f;stroke-width:1.27506816;stroke-miterlimit:4;stroke-dasharray:none;stroke-opacity:1"
       id="g2111" /><g
       style="fill:#ffc85f;fill-opacity:1;stroke:#ffc85f;stroke-width:1.27506816;stroke-miterlimit:4;stroke-dasharray:none;stroke-opacity:1"
       id="g2113" /><g
       style="fill:#ffc85f;fill-opacity:1;stroke:#ffc85f;stroke-width:1.27506816;stroke-miterlimit:4;stroke-dasharray:none;stroke-opacity:1"
       id="g2115" /></g></g></svg>